<svg viewBox="0 0 200 200" xmlns="http://www.w3.org/2000/svg">
  <path
    fill="#6B3CB1"
    d="M26.2,-45.1C36.3,-39.5,48.6,-37.3,52.7,-30.4C56.9,-23.4,53,-11.7,56,1.7C59.1,15.2,69,30.4,64.3,36.5C59.7,42.6,40.4,39.6,27.3,48.3C14.1,56.9,7.1,77.1,-3.6,83.3C-14.3,89.6,-28.6,81.9,-34.1,68.9C-39.5,55.8,-36.2,37.4,-42.7,25C-49.2,12.7,-65.4,6.3,-65.7,-0.2C-66,-6.7,-50.3,-13.3,-43.6,-25.3C-36.9,-37.3,-39.3,-54.7,-33.5,-62.7C-27.7,-70.8,-13.9,-69.5,-2.9,-64.5C8,-59.4,16.1,-50.6,26.2,-45.1Z"
    transform="translate(100 100)"
  />
</svg>